<svg width="102" height="54" viewBox="0 0 102 54" fill="none" xmlns="http://www.w3.org/2000/svg">
<path d="M76.2449 23.5336V23.3158C76.2449 19.0132 76.2449 14.7098 76.2449 10.4071C76.2449 10.2459 76.3282 10.1653 76.4949 10.1653C77.3643 10.1653 78.233 10.1653 79.1024 10.1653C79.3206 10.1653 79.305 10.1334 79.305 10.3597C79.305 11.1305 79.305 11.902 79.305 12.6728C79.305 17.1621 79.305 21.6514 79.305 26.1406C79.305 26.4105 79.3361 26.3716 79.083 26.3716C77.5623 26.3724 76.0407 26.3693 74.52 26.3771C74.3616 26.3779 74.2956 26.3211 74.2358 26.1865C72.2516 21.7299 70.2636 17.2749 68.2755 12.8198C68.2491 12.7599 68.2335 12.6938 68.1614 12.6238V12.8439C68.1614 17.2772 68.1614 21.7105 68.1614 26.1445C68.1614 26.4043 68.1978 26.3724 67.9355 26.3732C67.0598 26.3748 66.1849 26.3732 65.3093 26.3732C65.2658 26.3732 65.2223 26.3716 65.1788 26.3732C65.1214 26.3755 65.1028 26.3444 65.1035 26.2923C65.1043 26.2488 65.1035 26.2052 65.1035 26.1616C65.1035 20.9016 65.1035 15.6408 65.1035 10.3807C65.1035 10.3558 65.1035 10.3309 65.1035 10.306C65.1066 10.1676 65.1066 10.166 65.2487 10.166C66.025 10.166 66.8005 10.166 67.5768 10.166C68.4028 10.166 69.228 10.1699 70.054 10.1622C70.1991 10.1606 70.2674 10.2018 70.328 10.3379C71.8262 13.7064 73.3291 17.0726 74.832 20.4396C75.2644 21.4087 75.6976 22.3778 76.1315 23.3461C76.1579 23.4052 76.1711 23.4729 76.2449 23.5336Z" fill="#090E22"/>
<path d="M51.9596 18.2644C51.9596 15.6402 51.9596 13.0168 51.9596 10.3926C51.9596 10.1351 51.9246 10.1655 52.1862 10.1647C55.9233 10.1647 59.6604 10.1647 63.3982 10.1647C63.6474 10.1647 63.6187 10.1305 63.6187 10.3786C63.6195 11.2053 63.6187 12.0321 63.6187 12.8597C63.6187 12.9032 63.6171 12.9468 63.6187 12.9903C63.6202 13.0471 63.5907 13.0658 63.5387 13.0642C63.4891 13.0627 63.4394 13.0642 63.3897 13.0642C60.7138 13.0642 58.0387 13.0642 55.3628 13.0642C55.3194 13.0642 55.2759 13.0642 55.2324 13.0642C55.0935 13.0665 55.0911 13.0673 55.0911 13.2089C55.0911 14.3716 55.0911 15.5344 55.0911 16.6972C55.0911 16.8574 55.0927 16.8589 55.2541 16.8589C56.4085 16.8589 57.5636 16.8589 58.718 16.8589C59.9655 16.8589 61.2137 16.8589 62.4612 16.8589C62.4985 16.8589 62.5358 16.8628 62.573 16.8589C62.6576 16.8496 62.6926 16.8729 62.6926 16.9686C62.6887 17.8327 62.6887 18.6968 62.6926 19.5617C62.6926 19.6667 62.6538 19.6823 62.5637 19.6815C61.9862 19.6784 61.4094 19.6799 60.8318 19.6799C58.9943 19.6799 57.1568 19.6799 55.3194 19.6799C55.2759 19.6799 55.2324 19.6823 55.1889 19.6799C55.1191 19.676 55.0849 19.7032 55.0903 19.7771C55.0935 19.8145 55.0903 19.8518 55.0903 19.8891C55.0903 21.0146 55.0903 22.14 55.0903 23.2654C55.0903 23.3028 55.0927 23.3401 55.0903 23.3774C55.0849 23.4482 55.1121 23.4809 55.1858 23.4762C55.2355 23.4731 55.2852 23.4762 55.3349 23.4762C58.0232 23.4762 60.7107 23.4762 63.399 23.4762C63.5455 23.4762 63.6187 23.5472 63.6187 23.6893C63.6187 24.5161 63.6187 25.3429 63.6187 26.1704C63.6187 26.214 63.6179 26.2575 63.6187 26.3011C63.6202 26.3578 63.59 26.3773 63.5372 26.3757C63.4999 26.3742 63.4627 26.3757 63.4254 26.3757C59.6697 26.3757 55.914 26.3757 52.1583 26.3757C52.1521 26.3757 52.1459 26.3757 52.1397 26.3757C51.9425 26.3757 51.9588 26.3858 51.9588 26.1945C51.9588 23.5524 51.9588 20.9096 51.9588 18.2675L51.9596 18.2644Z" fill="#090E22"/>
<path d="M80.8304 18.2502C80.8304 15.6392 80.8304 13.0274 80.8304 10.4165C80.8304 10.3667 80.8327 10.3169 80.8304 10.2671C80.8273 10.2003 80.8475 10.159 80.9243 10.1653C80.9678 10.1684 81.0113 10.1653 81.0547 10.1653C84.7918 10.1653 88.5289 10.1653 92.2659 10.1653C92.5159 10.1653 92.4864 10.1349 92.4864 10.3799C92.4872 11.2067 92.4872 12.0335 92.4864 12.861C92.4864 13.0912 92.5175 13.064 92.2745 13.064C89.5862 13.064 86.8987 13.064 84.2104 13.064C84.0458 13.064 83.9635 13.1454 83.9635 13.3082C83.9635 14.415 83.9635 15.5218 83.9635 16.6285C83.9635 16.6721 83.9658 16.7156 83.9635 16.7592C83.9581 16.8292 83.9852 16.8642 84.059 16.8595C84.1087 16.8564 84.1583 16.8595 84.208 16.8595C86.592 16.8595 88.9752 16.8595 91.3592 16.8595C91.5968 16.8595 91.5626 16.8253 91.5634 17.0672C91.565 17.8815 91.5634 18.6958 91.5634 19.5109C91.5634 19.7007 91.5805 19.6797 91.3942 19.6797C88.9978 19.6797 86.6021 19.6797 84.2057 19.6797C84.0448 19.6797 83.9643 19.7635 83.9643 19.9309C83.9643 21.0377 83.9643 22.1445 83.9643 23.2512C83.9643 23.2948 83.9674 23.3383 83.9643 23.3819C83.9573 23.4597 83.9984 23.4783 84.0652 23.4752C84.1149 23.4729 84.1646 23.4752 84.2142 23.4752C86.8963 23.4752 89.5776 23.4752 92.2597 23.4752C92.5276 23.4752 92.488 23.441 92.4887 23.6984C92.4903 24.5128 92.4887 25.3271 92.4887 26.1422C92.4887 26.1858 92.4864 26.2293 92.4887 26.2729C92.4934 26.3413 92.4717 26.381 92.3956 26.3748C92.3583 26.3716 92.3211 26.3748 92.2838 26.3748C88.5343 26.3748 84.7848 26.3748 81.0353 26.3748C80.8032 26.3748 80.8327 26.3965 80.8327 26.1601C80.8327 23.5242 80.8327 20.8876 80.8327 18.2517L80.8304 18.2502Z" fill="#090E22"/>
<path d="M21.8579 15.6171C21.8579 17.2893 21.8672 18.9623 21.854 20.6345C21.8462 21.6005 21.6654 22.54 21.2431 23.415C20.511 24.9317 19.3303 25.9218 17.69 26.3114C16.2104 26.663 14.7432 26.5906 13.3257 26.0081C12.2489 25.5655 11.364 24.8726 10.7437 23.87C10.3447 23.2252 10.132 22.5167 10.0419 21.7677C10.0086 21.4893 10.0031 21.21 10 20.9308C9.99925 20.8445 10.0187 20.8126 10.1126 20.8126C11.0744 20.8157 12.037 20.8157 12.9988 20.8134C13.0765 20.8134 13.1044 20.8336 13.1091 20.916C13.1246 21.1766 13.1603 21.4348 13.2278 21.6884C13.439 22.4848 13.9498 23.0207 14.6881 23.3466C15.3953 23.6577 16.1304 23.702 16.8725 23.499C17.527 23.3201 17.9881 22.8986 18.2877 22.2942C18.5198 21.826 18.627 21.3236 18.6867 20.8095C18.7248 20.4813 18.7294 20.1523 18.7294 19.8225C18.7287 17.6401 18.7294 15.4577 18.7287 13.276C18.7287 13.0326 18.7582 13.066 18.5253 13.066C16.3897 13.0652 14.2541 13.066 12.1193 13.066C12.082 13.066 12.0448 13.066 12.0075 13.066C11.8468 13.0645 11.846 13.0645 11.8453 12.9035C11.8453 12.0518 11.8453 11.2001 11.8453 10.3485C11.8453 10.1548 11.8336 10.1673 12.0269 10.1673C15.2485 10.1673 18.4701 10.1673 21.6925 10.1673C21.8711 10.1673 21.8618 10.1525 21.8618 10.3407C21.8618 12.1 21.8618 13.8593 21.8618 15.6194C21.861 15.6194 21.8594 15.6194 21.8587 15.6194L21.8579 15.6171Z" fill="#090E22"/>
<path d="M39.934 18.2585C39.934 15.6351 39.934 13.0109 39.934 10.3875C39.934 10.1394 39.9068 10.1659 40.149 10.1659C41.0495 10.1659 41.9492 10.1659 42.8497 10.1659C42.887 10.1659 42.9243 10.1682 42.9615 10.1659C43.0306 10.1604 43.0679 10.1837 43.0632 10.2592C43.0601 10.309 43.0632 10.3587 43.0632 10.4085C43.0632 14.6863 43.0632 18.964 43.0632 23.2409C43.0632 23.5124 43.0291 23.4743 43.3023 23.4743C45.8229 23.475 48.3428 23.4743 50.8634 23.475C51.1188 23.475 51.0862 23.4416 51.0862 23.706C51.0878 24.5204 51.0862 25.3347 51.0862 26.1498C51.0862 26.1934 51.0839 26.2369 51.0862 26.2805C51.0909 26.3559 51.052 26.3792 50.9837 26.3746C50.9465 26.3722 50.9092 26.3746 50.8719 26.3746C47.2963 26.3746 43.7207 26.3746 40.1451 26.3746C40.1141 26.3746 40.083 26.3722 40.052 26.3746C39.9674 26.3831 39.9216 26.3551 39.9309 26.261C39.9355 26.2182 39.9309 26.1739 39.9309 26.1304C39.9309 23.5069 39.9309 20.8827 39.9309 18.2593L39.934 18.2585Z" fill="#090E22"/>
<path d="M31.1929 10.0103C26.4925 9.77151 22.5831 13.7265 22.6444 18.2811C22.5792 22.8178 26.3706 26.5783 30.7923 26.5597C35.3624 26.6849 39.1895 22.8341 39.1755 18.5183C39.323 13.7716 35.433 10.0546 31.1929 10.0103ZM35.5976 20.5382C35.0045 21.8666 34.0442 22.8295 32.6686 23.3436C32.0996 23.5567 31.505 23.6391 30.9298 23.6329C28.0295 23.685 26.227 21.3626 25.8776 19.4905C25.6432 18.2352 25.7239 17.0094 26.293 15.8537C26.9466 14.5268 27.9441 13.5445 29.3849 13.1276C30.9957 12.6609 32.5406 12.8468 33.9068 13.8812C35.0814 14.771 35.7808 15.9633 35.9826 17.4349C36.1294 18.5027 36.0393 19.5481 35.5984 20.5374L35.5976 20.5382Z" fill="#090E22"/>
<path d="M35.019 39.628C35.019 39.6925 35.019 39.7578 35.019 39.8224C35.019 41.0847 35.019 42.347 35.019 43.6094C35.019 43.6529 35.0174 43.6965 35.019 43.74C35.0213 43.7952 34.9965 43.8178 34.9421 43.8178C34.7061 43.817 34.4701 43.8178 34.2341 43.8178C34.1899 43.8178 34.1643 43.8022 34.1651 43.754C34.1658 43.7105 34.1651 43.6669 34.1651 43.6234C34.1651 41.9193 34.1651 40.2159 34.1651 38.5119C34.1651 38.487 34.1651 38.4621 34.1651 38.4372C34.1674 38.298 34.1682 38.2972 34.3094 38.2964C34.5392 38.2956 34.769 38.3034 34.9988 38.2933C35.1098 38.2886 35.1634 38.3337 35.2169 38.4232C35.7246 39.2702 36.2362 40.1148 36.747 40.9595C37.0358 41.4378 37.3253 41.9161 37.6149 42.3937C37.6359 42.4287 37.6584 42.4637 37.715 42.494V42.3011C37.715 41.0513 37.715 39.8014 37.715 38.5515C37.715 38.5204 37.715 38.4893 37.715 38.4582C37.7135 38.2879 37.7088 38.2956 37.8773 38.2964C38.0698 38.2964 38.2623 38.3026 38.4548 38.2941C38.5589 38.2894 38.5876 38.3314 38.5775 38.424C38.5744 38.4551 38.5775 38.4862 38.5775 38.5173C38.5775 40.2152 38.5775 41.9123 38.5775 43.6101C38.5775 43.6475 38.5744 43.6848 38.5775 43.7221C38.5837 43.7914 38.5612 43.8217 38.4851 43.8209C38.2181 43.817 37.951 43.8147 37.684 43.8217C37.5831 43.8248 37.5606 43.7548 37.5233 43.6934C37.1879 43.1411 36.8534 42.5889 36.518 42.0367C36.0608 41.283 35.6035 40.5286 35.1463 39.7749C35.1152 39.7244 35.0842 39.6738 35.0531 39.6233L35.0198 39.6295L35.019 39.628Z" fill="#090E22"/>
<path d="M49.1772 34.8633V34.6837C49.1772 33.4221 49.1772 32.1598 49.1772 30.8983C49.1772 30.8547 49.1803 30.8112 49.1772 30.7676C49.1702 30.6906 49.2083 30.6743 49.2766 30.6751C49.4939 30.6782 49.7113 30.6805 49.9279 30.6743C50.0234 30.6712 50.0482 30.7101 50.0381 30.7948C50.035 30.8189 50.0381 30.8446 50.0381 30.8695C50.0381 32.579 50.0381 34.2886 50.0381 35.9973C50.0381 36.2244 50.0614 36.1964 49.8417 36.198C49.6368 36.1996 49.4318 36.1902 49.2277 36.2011C49.1058 36.2073 49.0406 36.1669 48.9777 36.0611C48.5422 35.3308 48.0989 34.6051 47.6572 33.8779C47.3001 33.2891 46.9423 32.6996 46.5844 32.1108C46.5626 32.075 46.5409 32.0385 46.5106 31.9887C46.4633 32.0688 46.4819 32.1373 46.4819 32.2003C46.4804 33.4494 46.4811 34.6992 46.4811 35.9483C46.4811 35.9919 46.478 36.0354 46.4811 36.079C46.4881 36.163 46.4625 36.2027 46.3678 36.1995C46.1566 36.1933 45.9455 36.1957 45.7351 36.1995C45.659 36.2011 45.6156 36.1809 45.6241 36.0969C45.6272 36.0658 45.6241 36.0347 45.6241 36.0036C45.6241 34.294 45.6241 32.5845 45.6241 30.8757C45.6241 30.6463 45.5985 30.6789 45.8197 30.6774C46.0309 30.6758 46.242 30.6844 46.4524 30.6743C46.5681 30.6688 46.6279 30.7132 46.6853 30.8088C47.3979 31.9957 48.1152 33.1795 48.831 34.364C48.9334 34.5336 49.0359 34.7031 49.1392 34.8727C49.1516 34.8696 49.1648 34.8672 49.1772 34.8641V34.8633Z" fill="#090E22"/>
<path d="M40.8393 33.4379C40.8393 32.5862 40.8393 31.7346 40.8393 30.8829C40.8393 30.8394 40.8409 30.7958 40.8393 30.7522C40.837 30.6963 40.8626 30.6737 40.917 30.676C40.9542 30.6776 40.9915 30.676 41.0287 30.676C42.2079 30.676 43.3879 30.676 44.5671 30.676C44.6044 30.676 44.6416 30.6776 44.6789 30.676C44.7355 30.6729 44.755 30.6994 44.7542 30.753C44.7526 30.9459 44.7526 31.1388 44.7542 31.3309C44.7542 31.397 44.7231 31.418 44.6626 31.4141C44.6191 31.4118 44.5756 31.4141 44.5322 31.4141C43.6627 31.4141 42.794 31.4141 41.9246 31.4141C41.8873 31.4141 41.8501 31.4172 41.8128 31.4141C41.7282 31.4064 41.6808 31.432 41.6948 31.5277C41.6995 31.558 41.6948 31.5899 41.6948 31.621C41.6948 32.0192 41.6948 32.4167 41.6948 32.8149C41.6948 32.9728 41.6964 32.9743 41.8586 32.9751C42.6287 32.9751 43.398 32.9751 44.1681 32.9751C44.4087 32.9751 44.3707 32.9533 44.373 33.1859C44.3746 33.3228 44.3676 33.4597 44.3753 33.5958C44.3808 33.6891 44.3451 33.7117 44.2581 33.7101C44.0346 33.7047 43.811 33.7086 43.5874 33.7086C43.0036 33.7086 42.4206 33.7086 41.8369 33.7086C41.6971 33.7086 41.6948 33.7109 41.694 33.8517C41.6933 34.337 41.6933 34.8215 41.694 35.3069C41.694 35.457 41.6956 35.4585 41.8454 35.4585C42.77 35.4585 43.6953 35.4585 44.6199 35.4585C44.6634 35.4585 44.7068 35.4601 44.7503 35.4585C44.807 35.4554 44.8264 35.4834 44.8264 35.5371C44.8256 35.73 44.8248 35.9229 44.8264 36.115C44.8264 36.1803 44.7992 36.2036 44.7371 36.199C44.6998 36.1959 44.6626 36.199 44.6253 36.199C43.4337 36.199 42.2413 36.199 41.0497 36.199C40.8114 36.199 40.8378 36.2277 40.8378 35.9952C40.837 35.5161 40.8378 35.0378 40.8378 34.5587C40.8378 34.1853 40.8378 33.8128 40.8378 33.4394L40.8393 33.4379Z" fill="#090E22"/>
<path d="M51.13 33.441C51.13 32.5893 51.13 31.7377 51.13 30.886C51.13 30.8425 51.1315 30.7989 51.13 30.7553C51.1284 30.7017 51.1509 30.6745 51.206 30.676C51.2433 30.6776 51.2806 30.676 51.3178 30.676C52.497 30.676 53.6762 30.676 54.8554 30.676C54.8927 30.676 54.9299 30.6776 54.9672 30.676C55.0246 30.6729 55.0417 30.7009 55.0417 30.7546C55.0401 30.9412 55.0401 31.1279 55.0417 31.3138C55.0425 31.3815 55.0223 31.4203 54.947 31.4149C54.9035 31.4118 54.86 31.4149 54.8166 31.4149C53.9479 31.4149 53.0792 31.4149 52.2098 31.4149C52.1663 31.4149 52.1228 31.4172 52.0794 31.4149C52.0103 31.411 51.9792 31.4343 51.98 31.5098C51.9823 31.9632 51.9839 32.4174 51.9792 32.8709C51.9784 32.9767 52.0359 32.9751 52.1089 32.9751C52.5312 32.9751 52.9527 32.9751 53.375 32.9751C53.7663 32.9751 54.1567 32.9774 54.548 32.9735C54.6334 32.9728 54.6706 32.9914 54.666 33.0871C54.6582 33.2605 54.6598 33.4355 54.666 33.609C54.6691 33.6953 54.6318 33.7109 54.5565 33.7101C54.3081 33.707 54.0597 33.7085 53.8121 33.7085C53.2531 33.7085 52.695 33.7085 52.136 33.7085C51.9839 33.7085 51.9823 33.7101 51.9823 33.8594C51.9816 34.3378 51.9823 34.8169 51.9823 35.2952C51.9823 35.4733 51.9691 35.4585 52.1601 35.4585C53.0722 35.4585 53.9844 35.4577 54.8973 35.4585C55.1512 35.4585 55.1224 35.4181 55.1248 35.6856C55.1255 35.8038 55.1255 35.9221 55.1248 36.0403C55.1232 36.1966 55.1224 36.1974 54.9586 36.1982C54.7723 36.1982 54.586 36.1982 54.3997 36.1982C53.3944 36.1982 52.3891 36.1982 51.3838 36.1982C51.3465 36.1982 51.3093 36.1982 51.272 36.1982C51.1338 36.1951 51.1323 36.1951 51.1315 36.0512C51.1315 35.1809 51.1315 34.3105 51.1315 33.441H51.13Z" fill="#090E22"/>
<path d="M70.9402 32.6846C70.9402 33.2252 70.9387 33.7657 70.9402 34.307C70.941 34.5886 70.9092 34.8655 70.816 35.1323C70.6002 35.7459 70.1453 36.085 69.5297 36.2235C68.9948 36.344 68.4576 36.3394 67.9267 36.1986C67.2016 36.0065 66.7498 35.4861 66.6481 34.7418C66.624 34.5684 66.6163 34.3957 66.6163 34.2215C66.6163 33.1031 66.6163 31.9839 66.6163 30.8654C66.6163 30.8343 66.6186 30.8032 66.6163 30.7721C66.6093 30.7013 66.6372 30.6725 66.7102 30.6741C66.9338 30.6772 67.1574 30.6772 67.3801 30.6741C67.4547 30.6733 67.4787 30.7036 67.4733 30.7736C67.4694 30.8172 67.4733 30.8608 67.4733 30.9043C67.4733 32.0352 67.4733 33.1668 67.4733 34.2977C67.4733 34.4789 67.4904 34.657 67.5424 34.8313C67.641 35.1603 67.8552 35.3804 68.1797 35.4807C68.5749 35.6028 68.9762 35.6036 69.3713 35.4823C69.7502 35.3664 69.9652 35.0949 70.0436 34.7099C70.077 34.5443 70.0824 34.377 70.0824 34.2091C70.0824 33.1093 70.0824 32.0087 70.0824 30.909C70.0824 30.8654 70.0863 30.8219 70.0824 30.7783C70.0731 30.6943 70.1127 30.6733 70.1903 30.6749C70.4015 30.6788 70.6126 30.6819 70.823 30.6741C70.9262 30.6702 70.9449 30.7099 70.9449 30.8024C70.9418 31.4301 70.9433 32.0577 70.9433 32.6854L70.9402 32.6846Z" fill="#090E22"/>
<path d="M61.8277 34.1851C61.7174 35.0492 61.3456 35.7173 60.553 36.0696C59.7542 36.4243 58.9453 36.3963 58.169 35.9786C57.6799 35.7158 57.3384 35.3074 57.1303 34.798C56.7662 33.9074 56.7585 33.0037 57.1163 32.1108C57.5053 31.1409 58.3677 30.5731 59.4103 30.5646C59.8652 30.5607 60.2984 30.6424 60.702 30.8586C61.3285 31.1938 61.771 31.858 61.8137 32.5246C61.7741 32.5673 61.7213 32.5471 61.6747 32.5479C61.4574 32.5502 61.24 32.5479 61.0226 32.5495C60.9574 32.5495 60.9233 32.5316 60.9116 32.4585C60.8977 32.3737 60.8689 32.2897 60.8379 32.2088C60.6236 31.6535 60.2122 31.361 59.6261 31.3105C59.4592 31.2957 59.2907 31.2957 59.1246 31.3245C58.6324 31.4108 58.2738 31.6799 58.0401 32.1201C57.874 32.4328 57.7987 32.7703 57.7677 33.1196C57.725 33.5963 57.7677 34.0638 57.9377 34.5133C58.2831 35.4295 59.2628 35.8293 60.1548 35.4194C60.6159 35.2079 60.8309 34.819 60.914 34.3399C60.9411 34.1851 60.938 34.1835 61.0925 34.1828C61.3277 34.1828 61.5629 34.1828 61.8277 34.1828V34.1851Z" fill="#090E22"/>
<path d="M69.6474 40.9992C69.7196 41.0288 69.7716 41.0498 69.8229 41.0716C70.4152 41.3259 70.6527 41.7801 70.6201 42.3915C70.5797 43.1412 70.1994 43.6164 69.4766 43.8202C68.8579 43.9944 68.2361 43.9773 67.6306 43.7494C66.89 43.4702 66.5531 42.8231 66.5353 42.1068C66.5337 42.0298 66.5485 41.9925 66.6354 41.9948C66.8528 41.9995 67.0701 41.9987 67.2875 41.9948C67.3706 41.9932 67.3962 42.0275 67.3931 42.1052C67.3892 42.2172 67.4078 42.3285 67.4342 42.4373C67.5219 42.8013 67.7439 43.0409 68.1041 43.1412C68.4581 43.24 68.8168 43.2392 69.1708 43.1412C69.5364 43.0401 69.7282 42.7912 69.7483 42.4101C69.7514 42.3541 69.7514 42.2981 69.7499 42.2421C69.7375 41.7895 69.4859 41.504 69.038 41.4224C68.8533 41.3889 68.6677 41.3944 68.4814 41.3912C68.389 41.3897 68.2734 41.4301 68.2113 41.3734C68.1391 41.3072 68.1919 41.1859 68.1849 41.0887C68.1787 41.0024 68.1911 40.9137 68.1818 40.8281C68.1709 40.7231 68.219 40.7029 68.3106 40.7052C68.497 40.7091 68.6825 40.7107 68.868 40.6866C69.4533 40.6104 69.7569 40.0224 69.4766 39.4997C69.3548 39.2726 69.1498 39.1598 68.9076 39.124C68.6545 39.0867 68.3999 39.0922 68.1515 39.1692C67.7859 39.2827 67.5786 39.5433 67.5421 39.9314C67.5274 40.0924 67.5274 40.0939 67.3744 40.0947C67.1881 40.0955 67.0018 40.0963 66.8155 40.0947C66.682 40.0939 66.6773 40.0924 66.6851 39.9648C66.7185 39.3978 66.9614 38.9522 67.459 38.6636C67.8814 38.4186 68.3471 38.3618 68.8253 38.3859C69.1126 38.4007 69.3897 38.4676 69.6482 38.5975C70.2436 38.8962 70.5332 39.4748 70.4105 40.1281C70.3554 40.4237 70.1947 40.6539 69.9471 40.8219C69.8555 40.8841 69.7569 40.9362 69.6459 41.0024L69.6474 40.9992Z" fill="#090E22"/>
<path d="M63.1854 43.1008C63.3888 43.1008 63.5681 43.1008 63.7482 43.1008C64.4181 43.1008 65.0888 43.1008 65.7588 43.1008C65.9016 43.1008 65.9032 43.1031 65.904 43.2392C65.9055 43.401 65.9008 43.5628 65.9055 43.7238C65.9078 43.8008 65.876 43.8233 65.8077 43.8187C65.7704 43.8163 65.7332 43.8187 65.6959 43.8187C64.5664 43.8187 63.4369 43.8187 62.3082 43.8187C62.2709 43.8187 62.2336 43.8148 62.1964 43.8187C62.1156 43.8272 62.1048 43.7829 62.1079 43.7168C62.1226 43.3956 62.2018 43.0922 62.3532 42.8076C62.51 42.5128 62.7258 42.267 62.9727 42.0454C63.2746 41.7747 63.6139 41.5577 63.9609 41.35C64.2109 41.2007 64.4632 41.0529 64.6883 40.8663C64.88 40.7076 65.0236 40.5163 65.0718 40.2666C65.1121 40.0566 65.1098 39.8451 65.0462 39.6397C64.9514 39.3364 64.7349 39.1661 64.4282 39.1186C64.2256 39.0875 64.0207 39.0906 63.8188 39.1451C63.5301 39.2244 63.329 39.4002 63.2164 39.6794C63.1435 39.8606 63.1124 40.0481 63.107 40.2425C63.1031 40.3724 63.0984 40.3739 62.968 40.3747C62.7693 40.3763 62.5706 40.3724 62.3726 40.3763C62.2911 40.3778 62.253 40.3646 62.2499 40.2674C62.2181 39.2687 62.9005 38.4917 63.8926 38.3937C64.1984 38.3634 64.5004 38.3696 64.797 38.4505C65.8186 38.7282 66.2781 39.8241 65.7735 40.7683C65.6276 41.042 65.4188 41.2606 65.182 41.455C64.9025 41.6837 64.5967 41.8727 64.2877 42.0578C64.0587 42.1947 63.8274 42.3285 63.6224 42.5011C63.4361 42.6575 63.2723 42.8317 63.1869 43.0985L63.1854 43.1008Z" fill="#090E22"/>
<path d="M53.8875 43.1009H54.3556C55.0574 43.1009 55.7584 43.1009 56.4601 43.1009C56.6092 43.1009 56.6007 43.0955 56.6007 43.2432C56.6007 43.3926 56.6014 43.5419 56.6007 43.6912C56.5991 43.8172 56.5983 43.818 56.4664 43.8188C56.3359 43.8203 56.2055 43.8188 56.0751 43.8188H53.0577C53.0266 43.8188 52.9955 43.8188 52.9645 43.8188C52.7976 43.8172 52.8007 43.8172 52.8123 43.6554C52.8504 43.132 53.0639 42.6871 53.414 42.3037C53.7097 41.9794 54.0598 41.7235 54.4301 41.4933C54.6459 41.3595 54.8641 41.228 55.0799 41.0927C55.222 41.0033 55.3547 40.9014 55.4789 40.787C55.857 40.4402 55.8539 39.8833 55.7087 39.5457C55.6 39.2937 55.3951 39.1662 55.1366 39.1203C54.965 39.0899 54.7888 39.0915 54.6172 39.1234C54.1918 39.2019 53.9271 39.4773 53.8425 39.9222C53.8192 40.0443 53.7975 40.1672 53.8013 40.2924C53.8037 40.3577 53.7742 40.3787 53.7121 40.3779C53.4885 40.3756 53.2649 40.3756 53.0414 40.3779C52.9676 40.3787 52.9443 40.3492 52.9466 40.2784C52.973 39.4438 53.3558 38.5673 54.5287 38.404C54.8579 38.3581 55.1862 38.3643 55.5069 38.4553C56.7373 38.8045 56.87 40.0474 56.4671 40.7808C56.315 41.0577 56.1007 41.2809 55.8562 41.4761C55.5791 41.6978 55.2786 41.8837 54.9743 42.0657C54.7399 42.2057 54.5031 42.3434 54.2958 42.5238C54.122 42.6755 53.9667 42.8419 53.8867 43.1001L53.8875 43.1009Z" fill="#090E22"/>
<path d="M36.5337 30.6758C36.8007 30.6758 37.0546 30.6766 37.3084 30.6758C37.3651 30.6758 37.3853 30.6999 37.383 30.7543C37.3806 30.8041 37.383 30.8539 37.383 30.9037C37.383 32.3527 37.383 33.8016 37.383 35.2506C37.383 35.4863 37.3535 35.4583 37.591 35.4583C38.3859 35.4591 39.1801 35.4583 39.975 35.4583C40.0185 35.4583 40.062 35.4606 40.1054 35.4583C40.1621 35.4552 40.1838 35.484 40.1838 35.5361C40.1838 35.729 40.1838 35.9218 40.1838 36.1147C40.1838 36.1793 40.1536 36.2034 40.0922 36.1987C40.055 36.1964 40.0177 36.1987 39.9804 36.1987C38.8998 36.1987 37.82 36.1987 36.7394 36.1987C36.7022 36.1987 36.6649 36.1956 36.6276 36.1987C36.5531 36.2049 36.5275 36.1684 36.5329 36.0992C36.5353 36.0681 36.5329 36.0369 36.5329 36.0058C36.5329 34.2955 36.5329 32.586 36.5329 30.8757C36.5329 30.8142 36.5329 30.7528 36.5329 30.6766L36.5337 30.6758Z" fill="#090E22"/>
<path d="M62.5887 33.4367C62.5887 32.585 62.5887 31.7341 62.5887 30.8825C62.5887 30.8389 62.5903 30.7954 62.5887 30.7518C62.5864 30.6974 62.6097 30.674 62.6648 30.6748C62.8946 30.6764 63.1236 30.6764 63.3534 30.6748C63.4139 30.6748 63.4473 30.6927 63.4426 30.7596C63.4395 30.8032 63.4426 30.8467 63.4426 30.8903C63.4426 32.3385 63.4426 33.7859 63.4426 35.2341C63.4426 35.2839 63.4442 35.3337 63.4426 35.3834C63.4403 35.4394 63.4659 35.4612 63.5203 35.4581C63.5637 35.4558 63.6072 35.4581 63.6507 35.4581C64.4448 35.4581 65.239 35.4581 66.0331 35.4581C66.0766 35.4581 66.1201 35.4597 66.1636 35.4581C66.2187 35.4566 66.2404 35.4838 66.2404 35.5374C66.2396 35.7303 66.2389 35.9224 66.2404 36.1153C66.2404 36.183 66.207 36.2009 66.148 36.1978C66.1108 36.1962 66.0735 36.1978 66.0362 36.1978C64.9564 36.1978 63.8774 36.1978 62.7975 36.1978C62.7603 36.1978 62.723 36.1947 62.6858 36.1978C62.6143 36.204 62.5864 36.176 62.588 36.1029C62.5918 35.9598 62.5887 35.8174 62.5887 35.6743C62.5887 34.9284 62.5887 34.1826 62.5887 33.4375V33.4367Z" fill="#090E22"/>
<path d="M29.4923 30.6756C29.4923 30.758 29.4923 30.8195 29.4923 30.8809C29.4923 32.0686 29.4923 33.2555 29.4923 34.4431C29.4923 34.7044 29.4721 34.9642 29.3976 35.217C29.2315 35.7785 28.8713 36.1332 28.2937 36.2553C27.9358 36.3308 27.5772 36.3269 27.2248 36.2289C26.6511 36.0694 26.3398 35.6658 26.2078 35.1034C26.1488 34.8538 26.1465 34.5987 26.1465 34.3436C26.1465 34.2697 26.1737 34.2479 26.2443 34.2487C26.4554 34.2518 26.6666 34.2518 26.877 34.2487C26.9499 34.2479 26.9732 34.2767 26.9732 34.3482C26.9732 34.5528 26.9624 34.7581 27.0066 34.9611C27.092 35.3515 27.3047 35.5398 27.6998 35.5631C28.2929 35.5989 28.5778 35.3508 28.6244 34.7542C28.6361 34.6057 28.643 34.4563 28.643 34.3078C28.6446 33.1699 28.6438 32.0328 28.6438 30.8949C28.6438 30.8514 28.6461 30.8078 28.6438 30.7643C28.6399 30.7036 28.6593 30.674 28.7261 30.6748C28.9737 30.6772 29.2214 30.6756 29.4931 30.6756H29.4923Z" fill="#090E22"/>
<path d="M33.0681 41.066C33.0681 41.9114 33.0681 42.7576 33.0681 43.603C33.0681 43.6528 33.0681 43.7026 33.0673 43.7524C33.0673 43.799 33.0409 43.8177 32.9966 43.8177C32.7607 43.8177 32.5247 43.8169 32.2887 43.8177C32.2289 43.8177 32.2157 43.7866 32.218 43.736C32.2204 43.6987 32.218 43.6614 32.218 43.624C32.218 41.9137 32.218 40.2042 32.218 38.4939C32.218 38.4814 32.218 38.469 32.218 38.4565C32.2196 38.2963 32.2196 38.2963 32.3803 38.2955C32.5666 38.2955 32.7529 38.3002 32.9392 38.2932C33.0347 38.2901 33.0735 38.3165 33.0696 38.4169C33.0634 38.5786 33.0681 38.7404 33.0681 38.9022C33.0681 39.6232 33.0681 40.345 33.0681 41.066Z" fill="#090E22"/>
<path d="M56.1678 35.3453C56.2757 35.3593 56.4465 35.287 56.5334 35.3772C56.6111 35.4581 56.5521 35.6253 56.5559 35.7544C56.5598 35.8657 56.5536 35.9777 56.5575 36.0889C56.5606 36.1651 56.5396 36.2009 56.455 36.1993C56.2384 36.1947 56.0218 36.1962 55.806 36.1993C55.7377 36.1993 55.7043 36.1807 55.7051 36.1052C55.7082 35.882 55.7082 35.6596 55.7051 35.4363C55.7036 35.357 55.7447 35.3446 55.8091 35.3453C55.9202 35.3469 56.0319 35.3453 56.1686 35.3453H56.1678Z" fill="#090E22"/>
<path d="M76.3305 34.3804C76.2692 33.7901 75.933 33.402 75.3593 33.2487C75.3438 33.2449 75.3221 33.2488 75.3174 33.2106C75.3624 33.1679 75.4308 33.1546 75.4882 33.1251C75.7459 32.9929 75.9423 32.8054 76.0456 32.5278C76.294 31.862 75.9975 31.1503 75.35 30.8633C75.0566 30.7334 74.7461 30.6782 74.427 30.6767C73.6639 30.6736 72.9008 30.6751 72.1377 30.6759C71.9918 30.6759 71.9902 30.6782 71.9902 30.8322C71.9902 32.5659 71.9902 34.2987 71.9902 36.0324C71.9902 36.1957 71.9918 36.1973 72.1494 36.1973C72.9249 36.1973 73.7004 36.1973 74.4759 36.1973C74.6941 36.1973 74.9099 36.1747 75.121 36.1226C75.7048 35.9787 76.1263 35.6528 76.2855 35.047C76.3429 34.8284 76.3538 34.6044 76.3305 34.3812V34.3804ZM72.8403 31.5345C72.8387 31.428 72.8814 31.4124 72.9715 31.4132C73.4481 31.4163 73.9255 31.414 74.4022 31.4155C74.5202 31.4155 74.6366 31.4303 74.7492 31.4692C74.9906 31.5524 75.1474 31.715 75.2049 31.9654C75.2413 32.1241 75.2382 32.2859 75.2018 32.4453C75.1443 32.6934 74.9821 32.8404 74.7445 32.9112C74.6195 32.9485 74.4899 32.9633 74.3595 32.9625C74.1491 32.961 73.938 32.9625 73.7276 32.9625C73.4737 32.9625 73.2199 32.9594 72.966 32.9641C72.8698 32.9664 72.8395 32.9376 72.8403 32.8381C72.8457 32.4041 72.8465 31.9693 72.8403 31.5353V31.5345ZM75.437 34.7164C75.3966 35.0905 75.1823 35.3285 74.8152 35.4125C74.7065 35.4374 74.5962 35.4576 74.4837 35.4545C74.4464 35.4537 74.4092 35.4568 74.3719 35.4568C74.167 35.4568 73.962 35.4568 73.7578 35.4568C73.4908 35.4568 73.2238 35.4537 72.9575 35.4592C72.8682 35.4607 72.841 35.4319 72.841 35.3425C72.8449 34.8144 72.8442 34.2855 72.841 33.7574C72.841 33.6726 72.8605 33.6353 72.9544 33.6353C73.4823 33.6392 74.0094 33.6361 74.5372 33.6392C74.6172 33.6392 74.6979 33.6524 74.7771 33.668C75.1482 33.7403 75.3958 34.0125 75.4377 34.3998C75.4486 34.5041 75.4486 34.6114 75.4377 34.7164H75.437Z" fill="#090E22"/>
<path d="M44.0382 39.8263C43.7867 39.0696 43.2697 38.5811 42.4911 38.3844C42.2434 38.3214 41.9904 38.298 41.735 38.2972C41.1085 38.2965 40.482 38.2972 39.8548 38.2972C39.8299 38.2972 39.8051 38.3004 39.7803 38.2972C39.6848 38.2832 39.6607 38.3338 39.6685 38.417C39.6716 38.4544 39.6685 38.4917 39.6685 38.529C39.6685 39.3745 39.6685 40.2191 39.6685 41.0645C39.6685 41.91 39.6685 42.7671 39.6685 43.6187C39.6685 43.849 39.6374 43.8186 39.8602 43.8202C40.0838 43.8217 40.3066 43.821 40.5302 43.8202C41.0262 43.8186 41.5238 43.8373 42.0191 43.8108C43.0081 43.7587 43.7494 43.2369 44.053 42.2646C44.306 41.455 44.3045 40.6344 44.0367 39.8271L44.0382 39.8263ZM43.1905 42.1161C42.9809 42.7049 42.5633 43.023 41.9438 43.0712C41.5106 43.1046 41.0759 43.0759 40.6419 43.0875C40.5325 43.0906 40.5239 43.0385 40.5247 42.953C40.527 42.5991 40.5255 42.2444 40.5255 41.8905C40.5255 41.6175 40.5255 41.3438 40.5255 41.0708C40.5255 40.4431 40.5255 39.8154 40.5255 39.1886C40.5255 39.0252 40.5232 39.0369 40.6776 39.0377C41.0557 39.0392 41.4345 39.04 41.8126 39.04C41.9438 39.04 42.0726 39.0602 42.1992 39.0906C42.6463 39.1963 42.9599 39.4655 43.1416 39.887C43.3077 40.2712 43.3434 40.678 43.3419 41.0902C43.3403 41.4394 43.3085 41.784 43.1905 42.1169V42.1161Z" fill="#090E22"/>
<path d="M35.6184 32.6109C35.3777 31.6636 34.8227 30.9955 33.8771 30.693C33.4393 30.553 32.9883 30.5312 32.5342 30.6012C31.7105 30.7272 31.0577 31.1285 30.6695 31.8713C30.13 32.9042 30.137 33.9619 30.6703 34.9979C30.9839 35.6061 31.5001 35.9942 32.1546 36.1871C32.5512 36.3038 32.9572 36.3341 33.3702 36.282C34.2327 36.1731 34.8972 35.7617 35.3296 34.9987C35.606 34.5118 35.7139 33.9814 35.7069 33.3903C35.7131 33.1492 35.6859 32.8777 35.6184 32.6117V32.6109ZM34.6565 34.4317C34.4035 35.1309 33.8492 35.5369 33.1086 35.5641C32.9091 35.5711 32.7112 35.5587 32.5171 35.5128C31.8906 35.3642 31.5032 34.9567 31.3162 34.3578C31.1182 33.7247 31.119 33.0838 31.334 32.4531C31.5793 31.7321 32.146 31.3253 32.906 31.3074C33.1179 31.3027 33.3275 31.3128 33.5333 31.3681C34.0937 31.519 34.4508 31.8868 34.6519 32.4196C34.7738 32.7432 34.8149 33.0815 34.8165 33.4509C34.8141 33.7683 34.7738 34.1058 34.6558 34.4309L34.6565 34.4317Z" fill="#090E22"/>
<path d="M61.5574 40.9771C61.5434 40.4762 61.4627 39.9893 61.2523 39.5305C61.0311 39.0482 60.6941 38.6804 60.1841 38.5015C59.6881 38.3273 59.1858 38.3265 58.6905 38.5061C58.1192 38.713 57.7768 39.1447 57.5602 39.6938C57.3755 40.1628 57.3243 40.6551 57.3204 41.1537C57.3204 41.2221 57.318 41.2898 57.3204 41.3582C57.3413 41.8583 57.4205 42.346 57.6394 42.8018C57.856 43.2544 58.1758 43.6083 58.6548 43.7872C59.1796 43.9824 59.7121 43.9847 60.2361 43.7849C60.7826 43.5764 61.1126 43.1533 61.3191 42.6237C61.5255 42.094 61.5729 41.5394 61.5566 40.9763L61.5574 40.9771ZM60.5754 42.1757C60.5288 42.3755 60.4527 42.5661 60.3378 42.738C59.9186 43.3672 58.9824 43.3734 58.5539 42.7496C58.3629 42.4712 58.2845 42.1531 58.2379 41.8257C58.2069 41.6048 58.1859 41.3816 58.196 41.212C58.1945 40.771 58.2279 40.3891 58.3404 40.0173C58.3948 39.8377 58.4739 39.6712 58.5818 39.5172C58.9692 38.9635 59.9101 38.9565 60.3021 39.5196C60.4581 39.7428 60.5521 39.9909 60.6025 40.2546C60.7244 40.8962 60.7236 41.5379 60.5754 42.1757Z" fill="#090E22"/>
</svg>
