<?xml version="1.0" encoding="utf-8"?>
<!-- Generator: Adobe Illustrator 16.0.0, SVG Export Plug-In . SVG Version: 6.00 Build 0)  -->
<!DOCTYPE svg PUBLIC "-//W3C//DTD SVG 1.1//EN" "http://www.w3.org/Graphics/SVG/1.1/DTD/svg11.dtd">
<svg version="1.1" id="Layer_1" xmlns="http://www.w3.org/2000/svg" xmlns:xlink="http://www.w3.org/1999/xlink" x="0px" y="0px"
	 width="120px" height="65.87px" viewBox="0 0 120 65.87" enable-background="new 0 0 120 65.87" xml:space="preserve">
<g>
	<path fill-rule="evenodd" clip-rule="evenodd" fill="#248DFF" d="M58.899,0c4.504,0,8.157,3.638,8.157,8.125
		c0,4.487-3.652,8.125-8.157,8.125c-4.501,0-8.155-3.638-8.155-8.125C50.745,3.638,54.398,0,58.899,0"/>
	<path fill-rule="evenodd" clip-rule="evenodd" fill="#FFCF2D" d="M58.9,21.354c2.851,0,5.161,2.3,5.161,5.138
		c0,2.841-2.31,5.146-5.161,5.146c-2.849,0-5.161-2.305-5.161-5.146C53.739,23.654,56.051,21.354,58.9,21.354"/>
	<path fill-rule="evenodd" clip-rule="evenodd" fill="#248DFF" d="M5.735,35.968H0v3.643c0,0.055,0.001,0.108,0.001,0.164v13.883
		H2.48v-7.771h3.255c4.011,0,5.704-2.203,5.704-4.963C11.439,38.161,9.746,35.968,5.735,35.968z M5.118,44.49H2.48v-7.132h2.638
		c2.367,0,3.684,1.259,3.684,3.565C8.801,43.232,7.485,44.49,5.118,44.49z"/>
	<path fill="#248DFF" d="M40.167,40.63c0-3.162-2.101-4.662-5.705-4.662h-5.738v3.574c0.001,0.076,0.002,0.153,0.002,0.232v13.883
		h2.48v-7.906h2.261l5.166,7.906h2.827l-5.411-8.202C38.555,44.811,40.167,43.232,40.167,40.63z M33.359,44.354h-2.151v-6.996h2.664
		c2.369,0,3.716,1.152,3.716,3.325C37.587,42.505,36.614,44.354,33.359,44.354z"/>
	<rect x="44.509" y="35.968" fill="#248DFF" width="2.473" height="17.689"/>
	<polygon fill="#248DFF" points="63.928,35.968 63.928,49.342 53.703,35.968 52.003,35.968 52.003,53.657 53.434,53.657 
		53.434,39.827 64.199,53.871 65.408,53.871 65.408,35.968 	"/>
	<polygon fill="#248DFF" points="117.717,35.968 111.473,49.449 105.42,35.968 102.843,35.968 102.843,53.657 104.32,53.657 
		104.32,39.212 110.936,53.929 117.527,39.501 117.527,53.657 120,53.657 120,35.968 	"/>
	<path fill="#248DFF" d="M76.897,35.968h-1.583l-7.157,17.689h1.686l2.261-5.761h6.839l2.231,5.761h2.639L76.897,35.968z
		 M72.641,46.5l2.938-7.478l2.85,7.478H72.641z"/>
	<path fill="#248DFF" d="M19.252,35.968h-1.583l-7.157,17.689h1.686l2.261-5.761h6.838l2.232,5.761h2.639L19.252,35.968z
		 M14.997,46.5l2.937-7.478l2.85,7.478H14.997z"/>
	<path fill="#248DFF" d="M93.708,35.968h-1.583l-7.157,17.689h1.686l2.261-5.761h6.839l2.231,5.761h2.639L93.708,35.968z
		 M89.452,46.5l2.938-7.478l2.85,7.478H89.452z"/>
	<g>
		<path fill="#435561" d="M1.012,58.866v2.483h2.103v0.85H1.012v3.485h-0.98v-7.712h3.246v0.894H1.012z"/>
		<path fill="#435561" d="M17.014,61.818c0,0.603-0.06,1.152-0.18,1.649c-0.12,0.498-0.294,0.925-0.523,1.28
			c-0.229,0.356-0.505,0.632-0.828,0.828c-0.323,0.196-0.691,0.294-1.105,0.294c-0.414,0-0.784-0.098-1.111-0.294
			c-0.327-0.196-0.604-0.472-0.833-0.828c-0.229-0.355-0.403-0.782-0.523-1.28c-0.12-0.497-0.18-1.047-0.18-1.649
			c0-0.604,0.058-1.153,0.174-1.65c0.116-0.497,0.287-0.923,0.512-1.274c0.225-0.353,0.503-0.625,0.833-0.817
			s0.706-0.288,1.127-0.288c0.414,0,0.783,0.096,1.105,0.288c0.323,0.192,0.599,0.465,0.828,0.817
			c0.229,0.352,0.403,0.777,0.523,1.274C16.954,60.665,17.014,61.215,17.014,61.818z M15.979,61.818
			c0-0.437-0.034-0.846-0.104-1.231c-0.069-0.385-0.17-0.719-0.305-1.002c-0.135-0.283-0.302-0.507-0.501-0.67
			c-0.2-0.163-0.431-0.245-0.692-0.245c-0.269,0-0.505,0.082-0.708,0.245c-0.204,0.163-0.373,0.387-0.507,0.67
			s-0.234,0.617-0.299,1.002c-0.065,0.386-0.098,0.795-0.098,1.231c0,0.436,0.033,0.846,0.098,1.23s0.165,0.719,0.299,1.002
			s0.303,0.507,0.507,0.67c0.203,0.164,0.439,0.245,0.708,0.245c0.261,0,0.492-0.081,0.692-0.245
			c0.199-0.163,0.366-0.387,0.501-0.67c0.134-0.283,0.236-0.617,0.305-1.002C15.945,62.664,15.979,62.254,15.979,61.818z"/>
		<path fill="#435561" d="M30.358,64.138c-0.08,0.342-0.211,0.642-0.392,0.899c-0.182,0.258-0.419,0.461-0.713,0.609
			c-0.294,0.149-0.655,0.224-1.084,0.224s-0.786-0.074-1.073-0.224c-0.287-0.148-0.521-0.352-0.702-0.609
			c-0.182-0.258-0.311-0.558-0.387-0.899c-0.077-0.341-0.115-0.707-0.115-1.1v-5.065h0.98v4.968c0,0.261,0.02,0.514,0.06,0.757
			c0.04,0.243,0.109,0.459,0.207,0.648c0.098,0.188,0.232,0.339,0.403,0.451c0.17,0.113,0.387,0.169,0.648,0.169
			c0.261,0,0.475-0.056,0.643-0.169c0.167-0.112,0.299-0.263,0.397-0.451c0.098-0.189,0.167-0.405,0.207-0.648
			c0.04-0.243,0.06-0.496,0.06-0.757v-4.968h0.98v5.065C30.478,63.431,30.438,63.797,30.358,64.138z"/>
		<path fill="#435561" d="M43.092,65.685l-2.462-5.979h-0.033v5.979h-0.904v-7.712h1.176l2.429,5.991h0.033v-5.991h0.904v7.712
			H43.092z"/>
		<path fill="#435561" d="M58.222,61.84c0,1.249-0.254,2.202-0.763,2.859s-1.22,0.985-2.135,0.985H53.56v-7.712h1.775
			c0.915,0,1.625,0.331,2.13,0.991C57.97,59.625,58.222,60.584,58.222,61.84z M57.242,61.84c0-0.508-0.049-0.951-0.146-1.329
			c-0.098-0.377-0.231-0.689-0.401-0.937s-0.373-0.433-0.607-0.556c-0.235-0.123-0.486-0.185-0.754-0.185h-0.792v5.99h0.792
			c0.268,0,0.519-0.062,0.754-0.185c0.235-0.123,0.438-0.309,0.607-0.556s0.304-0.558,0.401-0.932S57.242,62.341,57.242,61.84z"/>
		<path fill="#435561" d="M70.292,65.685l-0.436-1.808h-2.233l-0.446,1.808h-0.991l1.938-7.712h1.297l1.896,7.712H70.292z
			 M68.778,58.888h-0.044l-0.98,4.216h1.972L68.778,58.888z"/>
		<path fill="#435561" d="M81.283,58.812v6.873h-0.98v-6.873h-1.471v-0.839h3.922v0.839H81.283z"/>
		<path fill="#435561" d="M91.217,65.685v-7.712h0.98v7.712H91.217z"/>
		<path fill="#435561" d="M106.467,61.818c0,0.603-0.06,1.152-0.18,1.649c-0.12,0.498-0.294,0.925-0.522,1.28
			c-0.229,0.356-0.506,0.632-0.828,0.828c-0.323,0.196-0.691,0.294-1.105,0.294s-0.784-0.098-1.111-0.294s-0.604-0.472-0.834-0.828
			c-0.229-0.355-0.402-0.782-0.522-1.28c-0.12-0.497-0.18-1.047-0.18-1.649c0-0.604,0.058-1.153,0.174-1.65s0.287-0.923,0.513-1.274
			c0.225-0.353,0.503-0.625,0.833-0.817s0.706-0.288,1.128-0.288c0.414,0,0.782,0.096,1.105,0.288
			c0.322,0.192,0.599,0.465,0.828,0.817c0.229,0.352,0.402,0.777,0.522,1.274S106.467,61.215,106.467,61.818z M105.432,61.818
			c0-0.437-0.034-0.846-0.104-1.231c-0.069-0.385-0.171-0.719-0.305-1.002c-0.135-0.283-0.302-0.507-0.501-0.67
			c-0.2-0.163-0.431-0.245-0.691-0.245c-0.27,0-0.505,0.082-0.708,0.245c-0.204,0.163-0.373,0.387-0.507,0.67
			c-0.135,0.283-0.234,0.617-0.3,1.002c-0.065,0.386-0.098,0.795-0.098,1.231c0,0.436,0.032,0.846,0.098,1.23s0.165,0.719,0.3,1.002
			c0.134,0.283,0.303,0.507,0.507,0.67c0.203,0.164,0.438,0.245,0.708,0.245c0.261,0,0.491-0.081,0.691-0.245
			c0.199-0.163,0.366-0.387,0.501-0.67c0.134-0.283,0.235-0.617,0.305-1.002S105.432,62.254,105.432,61.818z"/>
		<path fill="#435561" d="M118.853,65.685l-2.462-5.979h-0.033v5.979h-0.904v-7.712h1.177l2.43,5.991h0.032v-5.991h0.904v7.712
			H118.853z"/>
	</g>
	<g>
		<path fill-rule="evenodd" clip-rule="evenodd" fill="#00AEBD" d="M52.782,29.616c-5.302-0.723-9.575-2.272-12.38-4.324
			c-1.245-1.125-1.943-2.385-1.943-3.713c0-3.104,3.88-5.621,9.583-7.104v-0.001c0,0,0.682-0.186,1.662-0.391
			c0.038-0.008,0.077-0.017,0.115-0.024c0,0,0.003,0,0.005,0c0.184-0.038,0.378-0.076,0.578-0.113
			c-1.146-1.654-1.817-3.659-1.817-5.821c0-0.232,0.008-0.462,0.023-0.691c-11.424,1.773-19.603,6.375-19.603,11.754
			c0,6.233,10.988,11.426,25.281,12.379C53.674,31.015,53.164,30.354,52.782,29.616z"/>
		<path fill-rule="evenodd" clip-rule="evenodd" fill="#00AEBD" d="M65.018,29.616c5.302-0.723,9.575-2.272,12.38-4.324
			c1.245-1.125,1.943-2.385,1.943-3.713c0-3.104-3.88-5.621-9.583-7.104v-0.001c0,0-0.683-0.186-1.662-0.391
			c-0.038-0.008-0.076-0.017-0.114-0.024c0,0-0.004,0-0.006,0c-0.183-0.038-0.377-0.076-0.577-0.113
			c1.146-1.654,1.817-3.659,1.817-5.821c0-0.232-0.008-0.462-0.023-0.691c11.425,1.773,19.603,6.375,19.603,11.754
			c0,6.233-10.987,11.426-25.281,12.379C64.126,31.015,64.636,30.354,65.018,29.616z"/>
	</g>
</g>
</svg>
